<svg width="24" height="24" viewBox="0 0 24 24" xmlns="http://www.w3.org/2000/svg">

    <!-- Log_Out_Button -->
    <g id="logOut"> <!--viewBox="0 0 24 24"-->
        <path d="M7 6C7.26522 6 7.51957 5.89464 7.70711 5.70711C7.89464 5.51957 8 5.26522 8 5C8 4.73478 7.89464 4.48043 7.70711 4.29289C7.51957 4.10536 7.26522 4 7 4H5C4.73478 4 4.48043 4.10536 4.29289 4.29289C4.10536 4.48043 4 4.73478 4 5V19C4 19.2652 4.10536 19.5196 4.29289 19.7071C4.48043 19.8946 4.73478 20 5 20H7C7.26522 20 7.51957 19.8946 7.70711 19.7071C7.89464 19.5196 8 19.2652 8 19C8 18.7348 7.89464 18.4804 7.70711 18.2929C7.51957 18.1054 7.26522 18 7 18H6V6H7Z"
              fill="currentColor"/>
        <path d="M20.82 11.42L18 7.42C17.8471 7.20441 17.615 7.05814 17.3545 7.01317C17.0941 6.9682 16.8264 7.02818 16.61 7.18C16.5018 7.25579 16.4098 7.35224 16.3391 7.46381C16.2684 7.57537 16.2206 7.69982 16.1982 7.82999C16.1759 7.96015 16.1796 8.09344 16.2091 8.22217C16.2386 8.3509 16.2933 8.47252 16.37 8.58L18.09 11H10C9.73478 11 9.48043 11.1054 9.29289 11.2929C9.10536 11.4804 9 11.7348 9 12C9 12.2652 9.10536 12.5196 9.29289 12.7071C9.48043 12.8946 9.73478 13 10 13H18L16.2 15.4C16.1212 15.5051 16.0639 15.6246 16.0313 15.7518C15.9987 15.879 15.9915 16.0114 16.01 16.1414C16.0286 16.2714 16.0726 16.3965 16.1395 16.5095C16.2064 16.6225 16.2949 16.7212 16.4 16.8C16.5731 16.9298 16.7836 17 17 17C17.1552 17 17.3084 16.9639 17.4472 16.8944C17.5861 16.825 17.7069 16.7242 17.8 16.6L20.8 12.6C20.9281 12.4309 20.999 12.2254 21.0026 12.0133C21.0062 11.8011 20.9423 11.5934 20.82 11.42Z"
              fill="currentColor"/>
    </g>

    <!-- EYE_Outline_Input -->
    <g id="eyeOutline"> <!--viewBox="0 0 24 24"-->
        <path d="M21.87 11.5C21.23 10.39 17.71 4.81999 11.73 4.99999C6.2 5.13999 3 9.99999 2.13 11.5C2.04223 11.652 1.99603 11.8245 1.99603 12C1.99603 12.1755 2.04223 12.348 2.13 12.5C2.76 13.59 6.13 19 12.02 19H12.27C17.8 18.86 21.01 14 21.87 12.5C21.9578 12.348 22.004 12.1755 22.004 12C22.004 11.8245 21.9578 11.652 21.87 11.5ZM12.22 17C7.91 17.1 5.1 13.41 4.22 12C5.22 10.39 7.83 7.09999 11.83 6.99999C16.12 6.88999 18.94 10.59 19.83 12C18.8 13.61 16.22 16.9 12.22 17Z"
              fill="currentColor"/>
        <path d="M12 8.5C11.3078 8.5 10.6311 8.70527 10.0555 9.08986C9.47993 9.47444 9.03133 10.0211 8.76642 10.6606C8.50152 11.3001 8.4322 12.0039 8.56725 12.6828C8.7023 13.3618 9.03564 13.9854 9.52513 14.4749C10.0146 14.9644 10.6383 15.2977 11.3172 15.4327C11.9961 15.5678 12.6999 15.4985 13.3394 15.2336C13.9789 14.9687 14.5256 14.5201 14.9101 13.9445C15.2947 13.3689 15.5 12.6922 15.5 12C15.5 11.0717 15.1313 10.1815 14.4749 9.52513C13.8185 8.86875 12.9283 8.5 12 8.5ZM12 13.5C11.7033 13.5 11.4133 13.412 11.1666 13.2472C10.92 13.0824 10.7277 12.8481 10.6142 12.574C10.5007 12.2999 10.4709 11.9983 10.5288 11.7074C10.5867 11.4164 10.7296 11.1491 10.9393 10.9393C11.1491 10.7296 11.4164 10.5867 11.7074 10.5288C11.9983 10.4709 12.2999 10.5006 12.574 10.6142C12.8481 10.7277 13.0824 10.92 13.2472 11.1666C13.412 11.4133 13.5 11.7033 13.5 12C13.5 12.3978 13.342 12.7794 13.0607 13.0607C12.7794 13.342 12.3978 13.5 12 13.5Z"
              fill="currentColor"/>
    </g>


    <!-- EYE_Off_Outline_Input -->
    <g id="eyeOffOutline"> <!--viewBox="0 0 24 24"-->
        <path d="M4.71 3.29C4.61676 3.19676 4.50607 3.1228 4.38425 3.07234C4.26243 3.02188 4.13186 2.99591 4 2.99591C3.86814 2.99591 3.73757 3.02188 3.61575 3.07234C3.49393 3.1228 3.38324 3.19676 3.29 3.29C3.10169 3.47831 2.99591 3.7337 2.99591 4C2.99591 4.2663 3.10169 4.5217 3.29 4.71L8.92 10.34C8.5638 11.0026 8.43058 11.7624 8.54009 12.5067C8.64959 13.2509 8.99599 13.9401 9.52794 14.4721C10.0599 15.004 10.7491 15.3504 11.4934 15.4599C12.2376 15.5694 12.9974 15.4362 13.66 15.08L19.29 20.71C19.383 20.8037 19.4936 20.8781 19.6154 20.9289C19.7373 20.9797 19.868 21.0058 20 21.0058C20.132 21.0058 20.2627 20.9797 20.3846 20.9289C20.5064 20.8781 20.617 20.8037 20.71 20.71C20.8037 20.617 20.8781 20.5064 20.9289 20.3846C20.9797 20.2627 21.0058 20.132 21.0058 20C21.0058 19.868 20.9797 19.7373 20.9289 19.6154C20.8781 19.4936 20.8037 19.383 20.71 19.29L4.71 3.29ZM12 13.5C11.6022 13.5 11.2206 13.342 10.9393 13.0607C10.658 12.7794 10.5 12.3978 10.5 12V11.93L12.06 13.49L12 13.5Z"
              fill="currentColor"/>
        <path d="M12.22 17C7.92 17.1 5.1 13.41 4.22 12C4.84647 11.0007 5.59936 10.0865 6.46 9.27999L5 7.87C3.87133 8.93347 2.90441 10.1564 2.13 11.5C2.04223 11.652 1.99603 11.8245 1.99603 12C1.99603 12.1755 2.04223 12.348 2.13 12.5C2.76 13.59 6.13 19 12.02 19H12.27C13.3775 18.9671 14.4708 18.7404 15.5 18.33L13.92 16.75C13.3644 16.8962 12.7942 16.98 12.22 17Z"
              fill="currentColor"/>
        <path d="M21.87 11.5C21.23 10.39 17.7 4.81999 11.73 4.99999C10.6225 5.03285 9.52924 5.25961 8.5 5.66999L10.08 7.24999C10.6356 7.10382 11.2058 7.01997 11.78 6.99999C16.07 6.88999 18.89 10.59 19.78 12C19.1381 13.0023 18.3682 13.9167 17.49 14.72L19 16.13C20.1428 15.0693 21.1234 13.8462 21.91 12.5C21.9918 12.3445 22.0311 12.1702 22.0241 11.9946C22.0171 11.8191 21.9639 11.6485 21.87 11.5Z"
              fill="currentColor"/>
    </g>


    <!-- Search_Outline_Input -->
    <g id="searchOutline"> <!--viewBox="0 0 24 24"-->
        <path d="M20.71 19.29L17.31 15.9C18.407 14.5025 19.0022 12.7767 19 11C19 9.41775 18.5308 7.87103 17.6518 6.55544C16.7727 5.23984 15.5233 4.21446 14.0615 3.60896C12.5997 3.00346 10.9911 2.84504 9.43928 3.15372C7.88743 3.4624 6.46197 4.22433 5.34315 5.34315C4.22433 6.46197 3.4624 7.88743 3.15372 9.43928C2.84504 10.9911 3.00347 12.5997 3.60897 14.0615C4.21447 15.5233 5.23985 16.7727 6.55544 17.6518C7.87103 18.5308 9.41775 19 11 19C12.7767 19.0022 14.5025 18.407 15.9 17.31L19.29 20.71C19.383 20.8037 19.4936 20.8781 19.6154 20.9289C19.7373 20.9797 19.868 21.0058 20 21.0058C20.132 21.0058 20.2627 20.9797 20.3846 20.9289C20.5064 20.8781 20.617 20.8037 20.71 20.71C20.8037 20.617 20.8781 20.5064 20.9289 20.3846C20.9797 20.2627 21.0058 20.132 21.0058 20C21.0058 19.868 20.9797 19.7373 20.9289 19.6154C20.8781 19.4936 20.8037 19.383 20.71 19.29ZM5 11C5 9.81331 5.3519 8.65327 6.01119 7.66658C6.67047 6.67988 7.60755 5.91085 8.7039 5.45672C9.80026 5.0026 11.0067 4.88378 12.1705 5.11529C13.3344 5.3468 14.4035 5.91824 15.2426 6.75736C16.0818 7.59647 16.6532 8.66557 16.8847 9.82946C17.1162 10.9933 16.9974 12.1997 16.5433 13.2961C16.0892 14.3925 15.3201 15.3295 14.3334 15.9888C13.3467 16.6481 12.1867 17 11 17C9.4087 17 7.88258 16.3679 6.75736 15.2426C5.63214 14.1174 5 12.5913 5 11Z"
              fill="currentColor"/>
    </g>

    <!-- Close_Outline_Input -->
    <g id="closeOutline"> <!--viewBox="0 0 24 24"-->
        <path d="M13.41 12L17.71 7.71C17.8983 7.5217 18.0041 7.2663 18.0041 7C18.0041 6.7337 17.8983 6.47831 17.71 6.29C17.5217 6.1017 17.2663 5.99591 17 5.99591C16.7337 5.99591 16.4783 6.1017 16.29 6.29L12 10.59L7.71 6.29C7.5217 6.1017 7.2663 5.99591 7 5.99591C6.7337 5.99591 6.4783 6.1017 6.29 6.29C6.1017 6.47831 5.99591 6.7337 5.99591 7C5.99591 7.2663 6.1017 7.5217 6.29 7.71L10.59 12L6.29 16.29C6.19627 16.383 6.12188 16.4936 6.07111 16.6154C6.02034 16.7373 5.9942 16.868 5.9942 17C5.9942 17.132 6.02034 17.2627 6.07111 17.3846C6.12188 17.5064 6.19627 17.617 6.29 17.71C6.38296 17.8037 6.49356 17.8781 6.61542 17.9289C6.73728 17.9797 6.86799 18.0058 7 18.0058C7.13201 18.0058 7.26272 17.9797 7.38458 17.9289C7.50644 17.8781 7.61704 17.8037 7.71 17.71L12 13.41L16.29 17.71C16.383 17.8037 16.4936 17.8781 16.6154 17.9289C16.7373 17.9797 16.868 18.0058 17 18.0058C17.132 18.0058 17.2627 17.9797 17.3846 17.9289C17.5064 17.8781 17.617 17.8037 17.71 17.71C17.8037 17.617 17.8781 17.5064 17.9289 17.3846C17.9797 17.2627 18.0058 17.132 18.0058 17C18.0058 16.868 17.9797 16.7373 17.9289 16.6154C17.8781 16.4936 17.8037 16.383 17.71 16.29L13.41 12Z"
              fill="currentColor"/>
    </g>

    <!--  edit-2-outline  -->
    <g id="editOutline"> <!--viewBox="0 0 24 24"-->
        <path d="M19 20H5C4.73478 20 4.48043 20.1054 4.29289 20.2929C4.10536 20.4804 4 20.7348 4 21C4 21.2652 4.10536 21.5196 4.29289 21.7071C4.48043 21.8946 4.73478 22 5 22H19C19.2652 22 19.5196 21.8946 19.7071 21.7071C19.8946 21.5196 20 21.2652 20 21C20 20.7348 19.8946 20.4804 19.7071 20.2929C19.5196 20.1054 19.2652 20 19 20Z"
              fill="currentColor"/>
        <path d="M5.00001 18H5.09001L9.26001 17.62C9.7168 17.5745 10.144 17.3732 10.47 17.05L19.47 8.05C19.8193 7.68097 20.0081 7.18851 19.995 6.68054C19.9819 6.17256 19.7679 5.69051 19.4 5.34L16.66 2.6C16.3024 2.2641 15.8338 2.07136 15.3433 2.05845C14.8529 2.04555 14.3748 2.21337 14 2.53L5.00001 11.53C4.67677 11.856 4.47551 12.2832 4.43001 12.74L4.00001 16.91C3.98654 17.0565 4.00554 17.2041 4.05567 17.3424C4.10579 17.4807 4.18581 17.6062 4.29001 17.71C4.38345 17.8027 4.49426 17.876 4.6161 17.9258C4.73794 17.9755 4.8684 18.0008 5.00001 18ZM15.27 4L18 6.73L16 8.68L13.32 6L15.27 4ZM6.37001 12.91L12 7.32L14.7 10.02L9.10001 15.62L6.10001 15.9L6.37001 12.91Z"
              fill="currentColor"/>
    </g>

    <!--  group1399  -->
    <g id="group1399"> <!--viewBox="0 0 24 24"-->
        <!--<circle cx="12" cy="12" r="8.5" stroke="currentColor"/>-->
        <circle cx="12" cy="12" r="11" stroke="currentColor"/>
        <path d="M12 13C12.5523 13 13 12.5523 13 12C13 11.4477 12.5523 11 12 11C11.4477 11 11 11.4477 11 12C11 12.5523 11.4477 13 12 13Z" fill="currentColor"/>
        <path d="M12 9.5C12.5523 9.5 13 9.05228 13 8.5C13 7.94772 12.5523 7.5 12 7.5C11.4477 7.5 11 7.94772 11 8.5C11 9.05228 11.4477 9.5 12 9.5Z" fill="currentColor"/>
        <path d="M12 16.5C12.5523 16.5 13 16.0523 13 15.5C13 14.9477 12.5523 14.5 12 14.5C11.4477 14.5 11 14.9477 11 15.5C11 16.0523 11.4477 16.5 12 16.5Z" fill="currentColor"/>
    </g>

    <!--  person-outline  -->
    <g id="personOutline"> <!--viewBox="0 0 24 24"-->
        <path d="M12 11C12.7911 11 13.5645 10.7654 14.2223 10.3259C14.8801 9.88635 15.3928 9.26164 15.6955 8.53074C15.9983 7.79983 16.0775 6.99556 15.9231 6.21964C15.7688 5.44372 15.3878 4.73098 14.8284 4.17157C14.269 3.61216 13.5563 3.2312 12.7804 3.07686C12.0044 2.92252 11.2002 3.00173 10.4693 3.30448C9.73836 3.60723 9.11365 4.11992 8.67412 4.77772C8.2346 5.43552 8 6.20888 8 7C8 8.06087 8.42143 9.07828 9.17157 9.82843C9.92172 10.5786 10.9391 11 12 11ZM12 5C12.3956 5 12.7822 5.1173 13.1111 5.33706C13.44 5.55683 13.6964 5.86918 13.8478 6.23463C13.9991 6.60009 14.0387 7.00222 13.9616 7.39018C13.8844 7.77814 13.6939 8.13451 13.4142 8.41422C13.1345 8.69392 12.7781 8.8844 12.3902 8.96157C12.0022 9.03874 11.6001 8.99914 11.2346 8.84776C10.8692 8.69639 10.5568 8.44004 10.3371 8.11114C10.1173 7.78224 10 7.39556 10 7C10 6.46957 10.2107 5.96086 10.5858 5.58579C10.9609 5.21072 11.4696 5 12 5Z"
              fill="currentColor"/>
        <path d="M12 13C10.1435 13 8.36301 13.7375 7.05025 15.0503C5.7375 16.363 5 18.1435 5 20C5 20.2652 5.10536 20.5196 5.29289 20.7071C5.48043 20.8946 5.73478 21 6 21C6.26522 21 6.51957 20.8946 6.70711 20.7071C6.89464 20.5196 7 20.2652 7 20C7 18.6739 7.52678 17.4021 8.46447 16.4645C9.40215 15.5268 10.6739 15 12 15C13.3261 15 14.5979 15.5268 15.5355 16.4645C16.4732 17.4021 17 18.6739 17 20C17 20.2652 17.1054 20.5196 17.2929 20.7071C17.4804 20.8946 17.7348 21 18 21C18.2652 21 18.5196 20.8946 18.7071 20.7071C18.8946 20.5196 19 20.2652 19 20C19 18.1435 18.2625 16.363 16.9497 15.0503C15.637 13.7375 13.8565 13 12 13Z"
              fill="currentColor"/>
    </g>

    <!--  play-circle-outline  -->
    <g id="playCircleOutline"> <!--viewBox="0 0 24 24"-->
        <path d="M12 2C10.0222 2 8.08879 2.58649 6.4443 3.6853C4.79981 4.78412 3.51809 6.3459 2.76121 8.17317C2.00433 10.0004 1.8063 12.0111 2.19215 13.9509C2.578 15.8907 3.53041 17.6725 4.92894 19.0711C6.32746 20.4696 8.10929 21.422 10.0491 21.8079C11.9889 22.1937 13.9996 21.9957 15.8268 21.2388C17.6541 20.4819 19.2159 19.2002 20.3147 17.5557C21.4135 15.9112 22 13.9778 22 12C22 10.6868 21.7413 9.38642 21.2388 8.17317C20.7363 6.95991 19.9997 5.85752 19.0711 4.92893C18.1425 4.00035 17.0401 3.26375 15.8268 2.7612C14.6136 2.25866 13.3132 2 12 2ZM12 20C10.4178 20 8.87104 19.5308 7.55544 18.6518C6.23985 17.7727 5.21447 16.5233 4.60897 15.0615C4.00347 13.5997 3.84504 11.9911 4.15372 10.4393C4.4624 8.88743 5.22433 7.46197 6.34315 6.34315C7.46197 5.22433 8.88743 4.4624 10.4393 4.15372C11.9911 3.84504 13.5997 4.00346 15.0615 4.60896C16.5233 5.21447 17.7727 6.23984 18.6518 7.55544C19.5308 8.87103 20 10.4177 20 12C20 14.1217 19.1572 16.1566 17.6569 17.6569C16.1566 19.1571 14.1217 20 12 20Z"
              fill="currentColor"/>
        <path d="M12.34 7.45001C12.095 7.2242 11.789 7.07538 11.4601 7.02204C11.1312 6.96871 10.7938 7.0132 10.49 7.15001C10.1951 7.26932 9.94239 7.47385 9.76426 7.73748C9.58614 8.0011 9.49065 8.31185 9.49001 8.63001V15.37C9.49065 15.6882 9.58614 15.9989 9.76426 16.2625C9.94239 16.5262 10.1951 16.7307 10.49 16.85C10.7068 16.9483 10.942 16.9995 11.18 17C11.6089 16.9981 12.022 16.8379 12.34 16.55L16 13.18C16.1637 13.0301 16.2944 12.8478 16.3838 12.6446C16.4733 12.4415 16.5195 12.222 16.5195 12C16.5195 11.778 16.4733 11.5585 16.3838 11.3554C16.2944 11.1522 16.1637 10.9699 16 10.82L12.34 7.45001ZM11.5 14.6V9.40001L14.31 12L11.5 14.6Z"
              fill="currentColor"/>
    </g>

    <!--  trash-outline  -->
    <g id="trashOutline"> <!--viewBox="0 0 24 24"-->
        <path d="M21 6H16V4.33C15.9765 3.68982 15.7002 3.08506 15.2316 2.64829C14.7629 2.21153 14.1402 1.97839 13.5 2H10.5C9.85975 1.97839 9.23706 2.21153 8.76843 2.64829C8.2998 3.08506 8.02346 3.68982 8 4.33V6H3C2.73478 6 2.48043 6.10536 2.29289 6.29289C2.10536 6.48043 2 6.73479 2 7C2 7.26522 2.10536 7.51957 2.29289 7.70711C2.48043 7.89464 2.73478 8 3 8H4V19C4 19.7957 4.31607 20.5587 4.87868 21.1213C5.44129 21.6839 6.20435 22 7 22H17C17.7956 22 18.5587 21.6839 19.1213 21.1213C19.6839 20.5587 20 19.7957 20 19V8H21C21.2652 8 21.5196 7.89464 21.7071 7.70711C21.8946 7.51957 22 7.26522 22 7C22 6.73479 21.8946 6.48043 21.7071 6.29289C21.5196 6.10536 21.2652 6 21 6ZM10 4.33C10 4.17 10.21 4 10.5 4H13.5C13.79 4 14 4.17 14 4.33V6H10V4.33ZM18 19C18 19.2652 17.8946 19.5196 17.7071 19.7071C17.5196 19.8946 17.2652 20 17 20H7C6.73478 20 6.48043 19.8946 6.29289 19.7071C6.10536 19.5196 6 19.2652 6 19V8H18V19Z"
              fill="currentColor"/>
    </g>

    <!-- Arrow_Up_Outline -->
    <g id="arrowUpOutline"> <!--viewBox="0 0 24 24"-->
        <path d="M19.5416 14.5142C19.542 14.7478 19.4606 14.9742 19.3116 15.1542C19.2276 15.2554 19.1245 15.3391 19.0082 15.4005C18.8918 15.4618 18.7645 15.4996 18.6335 15.5117C18.5026 15.5238 18.3705 15.5099 18.2449 15.4708C18.1193 15.4318 18.0026 15.3684 17.9016 15.2842L12.5416 10.8042L7.17157 15.1242C7.06928 15.2072 6.95158 15.2693 6.82524 15.3067C6.6989 15.3441 6.56641 15.3562 6.43538 15.3423C6.30436 15.3283 6.17737 15.2886 6.06174 15.2255C5.9461 15.1623 5.84409 15.0769 5.76157 14.9742C5.67053 14.8707 5.60186 14.7495 5.55987 14.6183C5.51788 14.487 5.50348 14.3485 5.51757 14.2114C5.53165 14.0743 5.57392 13.9416 5.64172 13.8216C5.70952 13.7016 5.80139 13.5969 5.91157 13.5142L11.9116 8.68415C12.0905 8.53707 12.3149 8.45667 12.5466 8.45667C12.7782 8.45667 13.0026 8.53707 13.1816 8.68415L19.1816 13.6842C19.3026 13.7845 19.3982 13.9119 19.4608 14.0561C19.5233 14.2003 19.551 14.3572 19.5416 14.5142Z"
              fill="currentColor"/>
    </g>

    <!-- Arrow_Down_Outline -->
    <g id="arrowDownOutline"> <!--viewBox="0 0 24 24"-->
        <path d="M5.51414 9.45842C5.51369 9.22477 5.59506 8.99834 5.74414 8.81842C5.82809 8.71717 5.93119 8.63346 6.04754 8.57211C6.16389 8.51076 6.29119 8.47296 6.42217 8.46089C6.55315 8.44881 6.68522 8.46269 6.81082 8.50174C6.93643 8.54078 7.05309 8.60422 7.15414 8.68842L12.5141 13.1684L17.8841 8.84843C17.9864 8.76536 18.1041 8.70333 18.2305 8.6659C18.3568 8.62846 18.4893 8.61637 18.6203 8.63031C18.7514 8.64425 18.8783 8.68395 18.994 8.74712C19.1096 8.81029 19.2116 8.8957 19.2941 8.99843C19.3852 9.10189 19.4538 9.22306 19.4958 9.35432C19.5378 9.48558 19.5522 9.62411 19.5381 9.7612C19.5241 9.89829 19.4818 10.031 19.414 10.151C19.3462 10.271 19.2543 10.3756 19.1441 10.4584L13.1441 15.2884C12.9652 15.4355 12.7408 15.5159 12.5091 15.5159C12.2775 15.5159 12.0531 15.4355 11.8741 15.2884L5.87414 10.2884C5.75313 10.1881 5.65746 10.0607 5.59491 9.91646C5.53236 9.77225 5.50469 9.61533 5.51414 9.45842Z"
              fill="currentColor"/>
    </g>

    <!-- Filled_Star_Tables -->
    <g id="filledStar"> <!--viewBox="0 0 14 14"-->
        <path d="M10.7067 13.5C10.6 13.5004 10.4949 13.4753 10.4 13.4266L6.99999 11.6466L3.59999 13.4266C3.48959 13.4847 3.36511 13.5106 3.24071 13.5014C3.11631 13.4923 2.99698 13.4484 2.89628 13.3748C2.79558 13.3012 2.71755 13.2008 2.67107 13.085C2.62459 12.9693 2.61151 12.8428 2.63333 12.72L3.29999 8.96664L0.553328 6.29997C0.467633 6.21446 0.406842 6.10722 0.377479 5.98977C0.348117 5.87232 0.351291 5.74909 0.386661 5.63331C0.425301 5.51482 0.496379 5.40954 0.591828 5.32941C0.687277 5.24928 0.803276 5.19751 0.926661 5.17997L4.72666 4.62664L6.39999 1.20664C6.45458 1.09393 6.53982 0.998868 6.64594 0.932356C6.75205 0.865843 6.87476 0.830566 6.99999 0.830566C7.12523 0.830566 7.24794 0.865843 7.35405 0.932356C7.46017 0.998868 7.5454 1.09393 7.59999 1.20664L9.29333 4.61997L13.0933 5.17331C13.2167 5.19084 13.3327 5.24262 13.4282 5.32275C13.5236 5.40288 13.5947 5.50816 13.6333 5.62664C13.6687 5.74242 13.6719 5.86565 13.6425 5.9831C13.6131 6.10055 13.5524 6.20779 13.4667 6.29331L10.72 8.95997L11.3867 12.7133C11.4105 12.8383 11.398 12.9675 11.3507 13.0856C11.3035 13.2037 11.2234 13.3059 11.12 13.38C10.9993 13.4646 10.8539 13.5068 10.7067 13.5Z"
              fill="#E6AC39"/>
    </g>

    <!-- Not_Filled_Star_Tables -->
    <g id="notFilledStar"> <!--viewBox="0 0 14 14"-->
        <path d="M10.7067 13.5C10.6 13.5004 10.4949 13.4753 10.4 13.4266L6.99999 11.6466L3.59999 13.4266C3.48959 13.4847 3.36511 13.5106 3.24071 13.5014C3.11631 13.4923 2.99698 13.4484 2.89628 13.3748C2.79558 13.3012 2.71755 13.2008 2.67107 13.085C2.62459 12.9693 2.61151 12.8428 2.63333 12.72L3.29999 8.96664L0.553328 6.29997C0.467633 6.21446 0.406842 6.10722 0.377479 5.98977C0.348117 5.87232 0.351291 5.74909 0.386661 5.63331C0.425301 5.51482 0.496379 5.40954 0.591828 5.32941C0.687277 5.24928 0.803276 5.19751 0.926661 5.17997L4.72666 4.62664L6.39999 1.20664C6.45458 1.09393 6.53982 0.998868 6.64594 0.932356C6.75205 0.865843 6.87476 0.830566 6.99999 0.830566C7.12523 0.830566 7.24794 0.865843 7.35405 0.932356C7.46017 0.998868 7.5454 1.09393 7.59999 1.20664L9.29333 4.61997L13.0933 5.17331C13.2167 5.19084 13.3327 5.24262 13.4282 5.32275C13.5236 5.40288 13.5947 5.50816 13.6333 5.62664C13.6687 5.74242 13.6719 5.86565 13.6425 5.9831C13.6131 6.10055 13.5524 6.20779 13.4667 6.29331L10.72 8.95997L11.3867 12.7133C11.4105 12.8383 11.398 12.9675 11.3507 13.0856C11.3035 13.2037 11.2234 13.3059 11.12 13.38C10.9993 13.4646 10.8539 13.5068 10.7067 13.5ZM6.99999 10.2333C7.10686 10.2306 7.21258 10.2559 7.30666 10.3066L9.81999 11.64L9.33999 8.83331C9.32137 8.72614 9.32925 8.61604 9.36295 8.51262C9.39665 8.4092 9.45514 8.3156 9.53333 8.23997L11.5333 6.28664L8.73333 5.87331C8.63065 5.85263 8.53429 5.80806 8.45205 5.7432C8.36982 5.67834 8.30402 5.59501 8.25999 5.49997L6.99999 2.99997L5.73999 5.49997C5.69176 5.59578 5.62112 5.67853 5.53408 5.7412C5.44703 5.80387 5.34615 5.84462 5.23999 5.85997L2.43999 6.27331L4.43999 8.22664C4.51818 8.30226 4.57667 8.39587 4.61037 8.49929C4.64407 8.60271 4.65195 8.71281 4.63333 8.81997L4.15333 11.5933L6.66666 10.26C6.77316 10.2204 6.88856 10.2112 6.99999 10.2333Z"
              fill="#E6AC39"/>
    </g>

    <!-- Img_Outline -->
    <g id="imgOutline"> <!--viewBox="0 0 24 24"-->
        <path d="M18 3H6C5.20435 3 4.44129 3.31607 3.87868 3.87868C3.31607 4.44129 3 5.20435 3 6V18C3 18.7956 3.31607 19.5587 3.87868 20.1213C4.44129 20.6839 5.20435 21 6 21H18C18.7956 21 19.5587 20.6839 20.1213 20.1213C20.6839 19.5587 21 18.7956 21 18V6C21 5.20435 20.6839 4.44129 20.1213 3.87868C19.5587 3.31607 18.7956 3 18 3ZM6 5H18C18.2652 5 18.5196 5.10536 18.7071 5.29289C18.8946 5.48043 19 5.73478 19 6V14.36L15.8 11.63C15.3042 11.222 14.6821 10.999 14.04 10.999C13.3979 10.999 12.7758 11.222 12.28 11.63L5 17.7V6C5 5.73478 5.10536 5.48043 5.29289 5.29289C5.48043 5.10536 5.73478 5 6 5ZM18 19H6.56L13.56 13.16C13.6945 13.0602 13.8575 13.0062 14.025 13.0062C14.1925 13.0062 14.3555 13.0602 14.49 13.16L19 17V18C19 18.2652 18.8946 18.5196 18.7071 18.7071C18.5196 18.8946 18.2652 19 18 19Z"
              fill="currentColor"/>
        <path d="M8 10C8.82843 10 9.5 9.32843 9.5 8.5C9.5 7.67157 8.82843 7 8 7C7.17157 7 6.5 7.67157 6.5 8.5C6.5 9.32843 7.17157 10 8 10Z" fill="currentColor"/>
    </g>

    <!--  arrow-LEFT  -->
    <g id="arrowLeft"> <!--viewBox="0 0 16 16"-->
        <path d="M9.22003 12.6667C9.12043 12.667 9.02202 12.645 8.93204 12.6023C8.84205 12.5596 8.76277 12.4973 8.70003 12.42L5.48003 8.41999C5.38197 8.3007 5.32837 8.15107 5.32837 7.99666C5.32837 7.84224 5.38197 7.69261 5.48003 7.57332L8.81336 3.57332C8.92652 3.43718 9.08913 3.35156 9.26541 3.33531C9.4417 3.31906 9.61722 3.3735 9.75336 3.48666C9.88951 3.59982 9.97512 3.76242 9.99137 3.93871C10.0076 4.11499 9.95319 4.29051 9.84003 4.42666L6.86003 7.99999L9.74003 11.5733C9.82155 11.6712 9.87333 11.7903 9.88925 11.9167C9.90517 12.0431 9.88456 12.1714 9.82986 12.2864C9.77515 12.4014 9.68865 12.4983 9.58057 12.5657C9.4725 12.6331 9.34738 12.6681 9.22003 12.6667Z"
              fill="currentColor"/>
    </g>

    <!--  arrow-RIGHT  -->
    <g id="arrowRight"> <!--viewBox="0 0 16 16"-->
        <path d="M6.66662 12.6667C6.51085 12.667 6.35989 12.6127 6.23995 12.5133C6.17245 12.4574 6.11665 12.3886 6.07574 12.3111C6.03484 12.2335 6.00965 12.1486 6.00159 12.0613C5.99354 11.974 6.0028 11.8859 6.02883 11.8022C6.05486 11.7185 6.09715 11.6407 6.15329 11.5733L9.13995 8L6.25995 4.42C6.20458 4.35181 6.16322 4.27335 6.13827 4.18912C6.11331 4.10489 6.10525 4.01657 6.11454 3.92921C6.12384 3.84186 6.1503 3.75721 6.19242 3.68011C6.23453 3.60302 6.29147 3.53502 6.35995 3.48C6.42893 3.41931 6.50971 3.37353 6.59722 3.34554C6.68472 3.31755 6.77707 3.30794 6.86847 3.31733C6.95986 3.32672 7.04833 3.3549 7.12832 3.4001C7.20831 3.44531 7.27809 3.50655 7.33329 3.58L10.5533 7.58C10.6513 7.69929 10.7049 7.84892 10.7049 8.00333C10.7049 8.15775 10.6513 8.30738 10.5533 8.42667L7.21995 12.4267C7.15307 12.5073 7.06812 12.5711 6.97198 12.6128C6.87584 12.6545 6.77122 12.673 6.66662 12.6667Z"
              fill="currentColor"/>
    </g>

    <!--  email-envelope  -->
    <g id="emailEnvelope"> <!--viewBox="0 0 96 96"-->
        <path d="M95.5 48C95.5 74.2335 74.2335 95.5 48 95.5C21.7665 95.5 0.5 74.2335 0.5 48C0.5 21.7665 21.7665 0.5 48 0.5C74.2335 0.5 95.5 21.7665 95.5 48Z" fill="#8C61FF" fill-opacity="0.05" stroke="#BEA6FF"/>
        <path d="M77.8886 54.4543C77.7188 54.4521 77.5566 54.3836 77.4365 54.2635C77.3164 54.1435 77.2479 53.9812 77.2457 53.8114V44.5714C77.2457 44.4009 77.3135 44.2374 77.434 44.1169C77.5546 43.9963 77.7181 43.9286 77.8886 43.9286C78.0591 43.9286 78.2226 43.9963 78.3432 44.1169C78.4637 44.2374 78.5314 44.4009 78.5314 44.5714V53.82C78.5292 53.989 78.4605 54.1503 78.3402 54.269C78.2199 54.3877 78.0576 54.4543 77.8886 54.4543Z" fill="#BEA6FF"/>
        <path d="M77.8886 41.7772C77.7181 41.7772 77.5546 41.7094 77.434 41.5889C77.3135 41.4683 77.2457 41.3048 77.2457 41.1343V39.24C77.2457 39.0695 77.3135 38.906 77.434 38.7855C77.5546 38.6649 77.7181 38.5972 77.8886 38.5972C78.0591 38.5972 78.2226 38.6649 78.3432 38.7855C78.4637 38.906 78.5314 39.0695 78.5314 39.24V41.1429C78.5314 41.2269 78.5148 41.3101 78.4824 41.3876C78.45 41.4651 78.4024 41.5354 78.3426 41.5944C78.2828 41.6535 78.2119 41.7 78.1339 41.7314C78.056 41.7627 77.9726 41.7783 77.8886 41.7772Z" fill="#BEA6FF"/>
        <path d="M25.7863 32.5028H22.2274C21.859 32.5028 21.5601 32.2038 21.5601 31.8355C21.5601 31.4671 21.859 31.1682 22.2274 31.1682H25.7863C26.1547 31.1682 26.4536 31.4671 26.4536 31.8355C26.4536 32.2038 26.1547 32.5028 25.7863 32.5028Z" fill="#BEA6FF"/>
        <path d="M24.0073 34.2824C23.6389 34.2824 23.34 33.9834 23.34 33.6151V30.0561C23.34 29.6878 23.6389 29.3888 24.0073 29.3888C24.3756 29.3888 24.6746 29.6878 24.6746 30.0561V33.6151C24.6746 33.9834 24.3756 34.2824 24.0073 34.2824Z" fill="#BEA6FF"/>
        <path d="M36.8572 73.7143C37.3304 73.7143 37.7144 74.0983 37.7144 74.5714C37.7144 75.0446 37.3304 75.4286 36.8572 75.4286C36.3841 75.4286 36.0001 75.0446 36.0001 74.5714C36.0001 74.0983 36.3841 73.7143 36.8572 73.7143Z" fill="#BEA6FF"/>
        <path d="M31.7143 73.7143C32.1874 73.7143 32.5714 74.0983 32.5714 74.5714C32.5714 75.0446 32.1874 75.4286 31.7143 75.4286C31.2411 75.4286 30.8571 75.0446 30.8571 74.5714C30.8571 74.0983 31.2411 73.7143 31.7143 73.7143Z" fill="#BEA6FF"/>
        <path d="M26.5714 73.7143C27.0446 73.7143 27.4286 74.0983 27.4286 74.5714C27.4286 75.0446 27.0446 75.4286 26.5714 75.4286C26.0983 75.4286 25.7143 75.0446 25.7143 74.5714C25.7143 74.0983 26.0983 73.7143 26.5714 73.7143Z" fill="#BEA6FF"/>
        <path d="M47.8645 23.2418L23.7649 43.0406L47.8645 62.8486L71.9641 43.0406L47.8645 23.2418Z" fill="#333333"/>
        <path d="M47.8647 63.5436C47.7069 63.5303 47.5591 63.4613 47.4475 63.349L23.3479 43.541C23.2692 43.4753 23.2059 43.3931 23.1626 43.3002C23.1193 43.2072 23.0972 43.1059 23.0977 43.0033C23.099 42.9011 23.122 42.8004 23.1651 42.7077C23.2083 42.615 23.2706 42.5326 23.3479 42.4657L47.4475 22.667C47.575 22.553 47.74 22.4899 47.911 22.4899C48.082 22.4899 48.247 22.553 48.3745 22.667L72.4741 42.4657C72.5514 42.5326 72.6137 42.615 72.6569 42.7077C72.7 42.8004 72.723 42.9011 72.7243 43.0033C72.7248 43.1059 72.7027 43.2072 72.6594 43.3002C72.6161 43.3931 72.5528 43.4753 72.4741 43.541L48.3745 63.349C48.308 63.4155 48.2282 63.4673 48.1404 63.5008C48.0525 63.5343 47.9585 63.5489 47.8647 63.5436ZM24.8588 43.0404L47.8647 61.9493L70.8705 43.0404L47.8647 24.1408L24.8588 43.0404Z" fill="#BEA6FF"/>
        <path d="M65.0126 28.8032H30.717V69.5872H65.0126V28.8032Z" fill="#333333"/>
        <path d="M55.4098 40.853L43.6937 50.4836V69.5872H65.0126V40.853H55.4098Z" fill="#333333"/>
        <path d="M65.0588 70.2823H30.7632C30.5795 70.2799 30.4041 70.2059 30.2743 70.076C30.1444 69.9461 30.0704 69.7707 30.068 69.5871V28.8031C30.0728 28.622 30.1482 28.4499 30.2781 28.3235C30.4079 28.1971 30.582 28.1264 30.7632 28.1265H65.0588C65.2432 28.1265 65.42 28.1997 65.5504 28.3301C65.6807 28.4604 65.754 28.6373 65.754 28.8216V69.6056C65.7468 69.786 65.6708 69.9568 65.5414 70.0827C65.412 70.2086 65.2393 70.28 65.0588 70.2823ZM31.412 68.9104H64.3172V29.5168H31.412V68.9104Z" fill="#BEA6FF"/>
        <path d="M58.9875 35.0598H48.1705C47.9861 35.0598 47.8093 34.9865 47.679 34.8562C47.5486 34.7258 47.4753 34.549 47.4753 34.3646C47.4753 34.1802 47.5486 34.0034 47.679 33.873C47.8093 33.7427 47.9861 33.6694 48.1705 33.6694H58.9875C59.1719 33.6694 59.3487 33.7427 59.4791 33.873C59.6095 34.0034 59.6827 34.1802 59.6827 34.3646C59.6827 34.549 59.6095 34.7258 59.4791 34.8562C59.3487 34.9865 59.1719 35.0598 58.9875 35.0598Z" fill="#BEA6FF"/>
        <path d="M44.4628 35.0598H36.7417C36.5573 35.0598 36.3805 34.9865 36.2501 34.8562C36.1197 34.7258 36.0465 34.549 36.0465 34.3646C36.0465 34.1802 36.1197 34.0034 36.2501 33.873C36.3805 33.7427 36.5573 33.6694 36.7417 33.6694H44.4628C44.6472 33.6694 44.824 33.7427 44.9544 33.873C45.0848 34.0034 45.158 34.1802 45.158 34.3646C45.158 34.549 45.0848 34.7258 44.9544 34.8562C44.824 34.9865 44.6472 35.0598 44.4628 35.0598Z" fill="#BEA6FF"/>
        <path d="M58.9874 39.6944H51.878C51.6937 39.6944 51.5168 39.6211 51.3865 39.4907C51.2561 39.3604 51.1829 39.1836 51.1829 38.9992C51.1829 38.8148 51.2561 38.638 51.3865 38.5076C51.5168 38.3772 51.6937 38.304 51.878 38.304H58.9874C59.1718 38.304 59.3486 38.3772 59.479 38.5076C59.6094 38.638 59.6826 38.8148 59.6826 38.9992C59.6826 39.1836 59.6094 39.3604 59.479 39.4907C59.3486 39.6211 59.1718 39.6944 58.9874 39.6944Z" fill="#BEA6FF"/>
        <path d="M48.1705 39.6944H36.7417C36.5573 39.6944 36.3805 39.6211 36.2501 39.4907C36.1197 39.3604 36.0465 39.1836 36.0465 38.9992C36.0465 38.8148 36.1197 38.638 36.2501 38.5076C36.3805 38.3772 36.5573 38.304 36.7417 38.304H48.1705C48.3548 38.304 48.5317 38.3772 48.662 38.5076C48.7924 38.638 48.8657 38.8148 48.8657 38.9992C48.8657 39.1836 48.7924 39.3604 48.662 39.4907C48.5317 39.6211 48.3548 39.6944 48.1705 39.6944Z" fill="#BEA6FF"/>
        <path d="M58.9876 44.3289H46.3168C46.1324 44.3289 45.9556 44.2556 45.8252 44.1253C45.6948 43.9949 45.6216 43.8181 45.6216 43.6337C45.6216 43.4493 45.6948 43.2725 45.8252 43.1421C45.9556 43.0118 46.1324 42.9385 46.3168 42.9385H58.9876C59.172 42.9385 59.3488 43.0118 59.4792 43.1421C59.6095 43.2725 59.6828 43.4493 59.6828 43.6337C59.6828 43.8181 59.6095 43.9949 59.4792 44.1253C59.3488 44.2556 59.172 44.3289 58.9876 44.3289Z" fill="#BEA6FF"/>
        <path d="M42.609 44.3289H36.7417C36.5573 44.3289 36.3805 44.2556 36.2501 44.1253C36.1197 43.9949 36.0465 43.8181 36.0465 43.6337C36.0465 43.4493 36.1197 43.2725 36.2501 43.1421C36.3805 43.0118 36.5573 42.9385 36.7417 42.9385H42.609C42.7934 42.9385 42.9702 43.0118 43.1006 43.1421C43.231 43.2725 43.3042 43.4493 43.3042 43.6337C43.3042 43.8181 43.231 43.9949 43.1006 44.1253C42.9702 44.2556 42.7934 44.3289 42.609 44.3289Z" fill="#BEA6FF"/>
        <path d="M58.9875 48.9635H52.805C52.6207 48.9635 52.4438 48.8902 52.3135 48.7598C52.1831 48.6295 52.1099 48.4527 52.1099 48.2683C52.1099 48.0839 52.1831 47.9071 52.3135 47.7767C52.4438 47.6463 52.6207 47.5731 52.805 47.5731H58.9875C59.1719 47.5731 59.3487 47.6463 59.4791 47.7767C59.6095 47.9071 59.6827 48.0839 59.6827 48.2683C59.6827 48.4527 59.6095 48.6295 59.4791 48.7598C59.3487 48.8902 59.1719 48.9635 58.9875 48.9635Z" fill="#BEA6FF"/>
        <path d="M49.0974 48.9635H36.7417C36.5573 48.9635 36.3805 48.8902 36.2501 48.7598C36.1197 48.6295 36.0465 48.4527 36.0465 48.2683C36.0465 48.0839 36.1197 47.9071 36.2501 47.7767C36.3805 47.6463 36.5573 47.5731 36.7417 47.5731H49.0974C49.2818 47.5731 49.4586 47.6463 49.589 47.7767C49.7193 47.9071 49.7926 48.0839 49.7926 48.2683C49.7926 48.4527 49.7193 48.6295 49.589 48.7598C49.4586 48.8902 49.2818 48.9635 49.0974 48.9635Z" fill="#BEA6FF"/>
        <path d="M54.0472 53.598H41.6822C41.4979 53.598 41.321 53.5248 41.1907 53.3944C41.0603 53.264 40.9871 53.0872 40.9871 52.9028C40.9871 52.7185 41.0603 52.5416 41.1907 52.4113C41.321 52.2809 41.4979 52.2077 41.6822 52.2077H54.0472C54.2316 52.2077 54.4084 52.2809 54.5388 52.4113C54.6691 52.5416 54.7424 52.7185 54.7424 52.9028C54.7424 53.0872 54.6691 53.264 54.5388 53.3944C54.4084 53.5248 54.2316 53.598 54.0472 53.598Z" fill="#BEA6FF"/>
        <path d="M23.7649 43.0405V69.5871L39.9116 56.3138L23.7649 43.0405Z" fill="#333333"/>
        <path d="M55.8176 56.3138L71.9644 69.5871V43.0405L55.8176 56.3138Z" fill="#333333"/>
        <path d="M47.8645 62.8485L39.9116 56.3138L23.7649 69.5872H71.9641L55.8174 56.3138L47.8645 62.8485Z" fill="#333333"/>
        <path d="M28.3998 50.4927V65.7774L37.6967 58.1397L28.3998 50.4927Z" fill="#333333"/>
        <path d="M63.1958 57.8803L71.9643 65.0916V50.6782L63.1958 57.8803Z" fill="#333333"/>
        <path d="M23.7652 70.2823C23.662 70.2808 23.5604 70.2554 23.4686 70.2081C23.3499 70.1533 23.2493 70.0658 23.1787 69.9558C23.1081 69.8457 23.0704 69.7178 23.0701 69.5871V43.0404C23.0704 42.9097 23.1081 42.7818 23.1787 42.6718C23.2493 42.5617 23.3499 42.4742 23.4686 42.4194C23.5874 42.3614 23.7202 42.3384 23.8516 42.3532C23.9829 42.368 24.1073 42.4199 24.2102 42.5028L40.3569 55.7761C40.435 55.8423 40.4978 55.9246 40.5408 56.0175C40.5838 56.1103 40.6061 56.2114 40.6061 56.3138C40.6061 56.4161 40.5838 56.5172 40.5408 56.61C40.4978 56.7029 40.435 56.7852 40.3569 56.8514L24.2102 70.1154C24.0865 70.2223 23.9287 70.2814 23.7652 70.2823ZM24.4604 44.5142V68.1133L38.8182 56.3138L24.4604 44.5142Z" fill="#BEA6FF"/>
        <path d="M60.4244 60.0954L50.2747 68.4376L43.1931 62.6166L34.7212 69.587H71.9644L60.4244 60.0954Z" fill="#333333"/>
        <path d="M71.9644 70.2823C71.801 70.2814 71.6432 70.2223 71.5195 70.1154L55.3728 56.8606C55.2947 56.7945 55.2319 56.7122 55.1889 56.6193C55.1458 56.5265 55.1235 56.4254 55.1235 56.323C55.1235 56.2207 55.1458 56.1196 55.1889 56.0267C55.2319 55.9339 55.2947 55.8515 55.3728 55.7854L71.5473 42.5028C71.6502 42.4199 71.7746 42.368 71.9059 42.3532C72.0373 42.3384 72.1701 42.3614 72.2888 42.4194C72.4075 42.4742 72.5081 42.5617 72.5788 42.6718C72.6494 42.7818 72.6871 42.9097 72.6874 43.0404V69.5871C72.6871 69.7178 72.6494 69.8457 72.5788 69.9558C72.5081 70.0658 72.4075 70.1533 72.2888 70.2081C72.1887 70.2598 72.0771 70.2853 71.9644 70.2823ZM56.9114 56.3138L71.2692 68.1133V44.5142L56.9114 56.3138Z" fill="#BEA6FF"/>
        <path d="M71.9642 70.2823H23.7649C23.621 70.2816 23.4808 70.2367 23.3632 70.1539C23.2455 70.071 23.1561 69.9541 23.1069 69.8189C23.0604 69.6841 23.0559 69.5384 23.0939 69.4011C23.132 69.2637 23.2108 69.1411 23.32 69.0495L39.4668 55.7762C39.5942 55.6622 39.7592 55.5992 39.9302 55.5992C40.1012 55.5992 40.2662 55.6622 40.3937 55.7762L47.9017 61.9494L55.4096 55.7762C55.5371 55.6622 55.7021 55.5992 55.8731 55.5992C56.0441 55.5992 56.2091 55.6622 56.3365 55.7762L72.4833 69.0495C72.5924 69.1411 72.6713 69.2637 72.7094 69.4011C72.7474 69.5384 72.7429 69.6841 72.6965 69.8189C72.6435 69.9667 72.5427 70.0926 72.41 70.1765C72.2774 70.2605 72.1204 70.2977 71.9642 70.2823ZM25.7022 68.9105H70.027L55.7896 57.2129L48.2817 63.3861C48.1542 63.5001 47.9892 63.5632 47.8182 63.5632C47.6472 63.5632 47.4822 63.5001 47.3548 63.3861L39.8468 57.2129L25.7022 68.9105Z" fill="#BEA6FF"/>
        <path d="M46.3576 75.3599H42.7987C42.4303 75.3599 42.1313 75.061 42.1313 74.6926C42.1313 74.3243 42.4303 74.0253 42.7987 74.0253H46.3576C46.7259 74.0253 47.0249 74.3243 47.0249 74.6926C47.0249 75.061 46.7259 75.3599 46.3576 75.3599Z" fill="#BEA6FF"/>
        <path d="M44.5788 77.1395C44.2105 77.1395 43.9115 76.8406 43.9115 76.4722V72.9133C43.9115 72.5449 44.2105 72.246 44.5788 72.246C44.9472 72.246 45.2461 72.5449 45.2461 72.9133V76.4722C45.2461 76.8406 44.9472 77.1395 44.5788 77.1395Z" fill="#BEA6FF"/>
    </g>

    <!--  arrow-back-outline  -->
    <g id="arrowBackOutline"> <!--viewBox="0 0 24 24"-->
        <path d="M19 11H7.14L10.77 6.64C10.9397 6.43578 11.0214 6.1725 10.997 5.90808C10.9726 5.64365 10.8442 5.39974 10.64 5.23C10.4358 5.06026 10.1725 4.9786 9.90808 5.00298C9.64365 5.02736 9.39974 5.15578 9.23 5.36L4.23 11.36C4.19636 11.4077 4.16628 11.4579 4.14 11.51C4.14 11.56 4.14 11.59 4.07 11.64C4.02467 11.7547 4.00094 11.8767 4 12C4.00094 12.1233 4.02467 12.2453 4.07 12.36C4.07 12.41 4.07 12.44 4.14 12.49C4.16628 12.5421 4.19636 12.5923 4.23 12.64L9.23 18.64C9.32402 18.7529 9.44176 18.8437 9.57485 18.9059C9.70793 18.9681 9.85309 19.0002 10 19C10.2337 19.0005 10.4601 18.9191 10.64 18.77C10.7413 18.6861 10.825 18.583 10.8863 18.4666C10.9477 18.3503 10.9855 18.2229 10.9975 18.092C11.0096 17.961 10.9957 17.8289 10.9567 17.7033C10.9176 17.5777 10.8542 17.4611 10.77 17.36L7.14 13H19C19.2652 13 19.5196 12.8946 19.7071 12.7071C19.8946 12.5196 20 12.2652 20 12C20 11.7348 19.8946 11.4804 19.7071 11.2929C19.5196 11.1054 19.2652 11 19 11Z" fill="currentColor"/>
    </g>

    <!--  dialog-close  -->
    <g id="dialogClose"> <!--viewBox="0 0 12 12"-->
        <path d="M7.40994 5.99994L11.7099 1.70994C11.8982 1.52164 12.004 1.26624 12.004 0.999941C12.004 0.73364 11.8982 0.478245 11.7099 0.289941C11.5216 0.101638 11.2662 -0.00415039 10.9999 -0.00415039C10.7336 -0.00415039 10.4782 0.101638 10.2899 0.289941L5.99994 4.58994L1.70994 0.289941C1.52164 0.101638 1.26624 -0.00415039 0.999939 -0.00415039C0.733637 -0.00415039 0.478243 0.101638 0.289939 0.289941C0.101635 0.478245 -0.00415277 0.73364 -0.00415277 0.999941C-0.00415278 1.26624 0.101635 1.52164 0.289939 1.70994L4.58994 5.99994L0.289939 10.2899C0.196211 10.3829 0.121816 10.4935 0.0710478 10.6154C0.0202791 10.7372 -0.00585938 10.8679 -0.00585938 10.9999C-0.00585938 11.132 0.0202791 11.2627 0.0710478 11.3845C0.121816 11.5064 0.196211 11.617 0.289939 11.7099C0.382902 11.8037 0.493503 11.8781 0.615362 11.9288C0.737221 11.9796 0.867927 12.0057 0.999939 12.0057C1.13195 12.0057 1.26266 11.9796 1.38452 11.9288C1.50638 11.8781 1.61698 11.8037 1.70994 11.7099L5.99994 7.40994L10.2899 11.7099C10.3829 11.8037 10.4935 11.8781 10.6154 11.9288C10.7372 11.9796 10.8679 12.0057 10.9999 12.0057C11.132 12.0057 11.2627 11.9796 11.3845 11.9288C11.5064 11.8781 11.617 11.8037 11.7099 11.7099C11.8037 11.617 11.8781 11.5064 11.9288 11.3845C11.9796 11.2627 12.0057 11.132 12.0057 10.9999C12.0057 10.8679 11.9796 10.7372 11.9288 10.6154C11.8781 10.4935 11.8037 10.3829 11.7099 10.2899L7.40994 5.99994Z" fill="currentColor"/>
    </g>

</svg>